<svg id="Layer_1" data-name="Layer 1" xmlns="http://www.w3.org/2000/svg" viewBox="0 0 786.12 177.79"><defs><style>.cls-1{fill:#fff;}</style></defs><path class="cls-1" d="M115.73,63.86q-12.84-8.69-12.83-22.15,0-9.12,4-14.76t9.68-5.65q8,0,13.26,8.27Q131.16,32,136.38,45c2.18,5.51,4.49,8.26,7,8.26V14.35l-9.13,4.56c-.3,0-2.54-1.63-6.74-4.89s-8.56-4.89-13-4.89q-12.18,0-22,12.37Q82,35,82,54.29q0,23.88,12.82,37.56,12,8.9,23.7,17.58,12.83,9.78,12.83,24.54,0,11.94-4.57,18.56t-11.3,6.62c-14.64,0-27.14-10.8-34.39-32.4v42c4.64-2.26,9.75-4.22,12.21-5.88.44,0,3,1.46,7.61,4.35a26.08,26.08,0,0,0,13.92,4.35q14.34,0,25.22-14.55,12-15.41,12-38.21,0-24.52-12.83-38Q137.68,79.28,115.73,63.86Z"/><path class="cls-1" d="M201.7,160.45H185.27V104.14h13.36l10.12,16.31V78.05a77,77,0,0,0-4.85,6.85q-4.62,6.84-5.27,6.85H185.27V42.61h16.42q2.37.22,10.37,11.09,3.24,4.56,7.35,10.87V33.48h-69.8q10.44,7.6,10.66,7.61v120l-7.18,8.05h69.79v-35Q206.67,160.45,201.7,160.45Z"/><path class="cls-1" d="M285.28,42q-1.51-8.48-3.48-8.48H245.71a36.6,36.6,0,0,0,3.15,3.91c2.1,2.47,3.16,4,3.16,4.57L230.27,161.1l-6.3,8.05h23.91q-4.35-7.4-4.35-8.05l5.95-35H274l5.64,35-8.3,8.09H314.2L305.07,160Zm-33.36,72L262,59.75c.15-.41.37-.62.67-.62.59,0,.89.37.89,1.09l8,53.7Z"/><path class="cls-1" d="M392.25,23.26V130.67q0,12-6.52,20.54t-15.66,8.59q-20.43,0-20.43-29.13V23.26l10-10.22H314.85l6.52,10.22V127.19q0,21.52,12.07,33.91t31.63,12.4a39.31,39.31,0,0,0,30.11-13.05q12.07-13,12.07-33.26V23.26L415.51,13H383.34Z"/><path class="cls-1" d="M447,77.4q-10.87-7.61-10.87-19.14,0-8,3.48-13.26,3.47-4.56,8.26-4.56,7.17,0,11.52,7.17,1.31,2,5.66,13.26,2.82,7.18,6.08,7.18V34.13q-5.21,2.61-7.82,4.13c-.3,0-2.25-1.45-5.87-4.35a18,18,0,0,0-11.31-4.34q-10.65,0-19.13,10.88-9.14,11.76-9.13,28.75,0,20.91,11.08,32.67,10.44,7.62,20.88,15.46Q461,125.84,461,138.67q0,10.46-4.07,16.23t-10,5.77c-12.89,0-24.11-9.49-30.55-28.48V168.5c4.24-1.66,9-3.18,11.19-4.57q.43,0,6.57,3.59a24.12,24.12,0,0,0,12.27,3.59q12.48,0,22.11-12.61,10.29-13.49,10.3-33.27,0-21.3-11.09-33Q466.4,90.67,447,77.4Z"/><path class="cls-1" d="M623.37,160.45V41.74q3-4.79,5-8.26H593.14A96,96,0,0,1,598.36,42V160.45c-4.63,3.75-7.64,6.25-9.13,7.59-6.11-5.22-9.54-8.13-10.21-8.67l-16.31-54.14c-1.6-5.36-3.59-9-6-11s-6.2-2.94-11.42-2.94c-2.32,0-3.47-.5-3.47-1.52q0-.21,8.47-2.39,10-2.82,15.66-9.13,8.47-9.13,8.48-26.31,0-18.69-9.79-29.14Q555.54,13,540.1,13H488.57q6.3,10.23,6.95,10.22V159.8q-9.34,8.92-9.34,9.35H531q-7.17-8.91-7.17-9.57V97.84c0-1.31.58-2,1.75-2q5.67,0,9.83,14.33l12.87,47.24q2.18,8,3.81,9.86t7.53,1.84h73.57c.29,0,.43-.07.43-.22Q633.58,168.29,623.37,160.45ZM525.53,86.53h-.22c-1,.15-1.52-.22-1.52-1.09V32.61q0-11.31,5.65-11.31,7.39,0,12.07,9.57t4.67,22.61q0,12-7.82,23.05Q531,86.31,525.53,86.53Z"/><path class="cls-1" d="M669.46,77.4q-10.87-7.61-10.87-19.14,0-8,3.48-13.26,3.46-4.56,8.26-4.56,7.17,0,11.52,7.17,1.3,2,5.65,13.26,2.84,7.18,6.09,7.18V34.13q-5.22,2.61-7.83,4.13c-.29,0-2.24-1.45-5.87-4.35a17.92,17.92,0,0,0-11.3-4.34q-10.65,0-19.13,10.88-9.13,11.76-9.14,28.75,0,20.91,11.09,32.67,10.44,7.62,20.88,15.46,11.09,8.51,11.08,21.34,0,10.46-4.06,16.23t-10,5.77c-12.89,0-24.11-9.49-30.55-28.48V168.5c4.23-1.66,9-3.18,11.19-4.57q.43,0,6.57,3.59a24.08,24.08,0,0,0,12.26,3.59q12.48,0,22.12-12.61Q701.2,145,701.2,125.23q0-21.3-11.09-33Q688.81,90.67,669.46,77.4Z"/><path class="cls-1" d="M758.29,160.45H741.86V104.14h13.36l10.12,16.31V78.05a77,77,0,0,0-4.85,6.85q-4.63,6.84-5.27,6.85H741.86V42.61h16.42q2.37.22,10.37,11.09,3.24,4.56,7.34,10.87V33.48H706.2q10.44,7.6,10.65,7.61v120l-7.17,8.05h69.79v-35Q763.25,160.45,758.29,160.45Z"/><path class="cls-1" d="M77,36.71,73.07,61.37H62.54L58.66,88.52H69.19l-3.6,24.65H54.79l-4.16,26.59H40.1l4.16-26.59H29.14l-4.09,26.62-10.65,0,4.1-26.6H8l3.65-24.65,10.94,0,3.89-27.19h-11L19,36.71l11,0,4.36-26.56,10.09,0L40.33,36.71H55.8l4.14-26.59,10.5,0L66.35,36.71ZM52,61.37H36.54L32.65,88.52H48.14Z"/></svg>